# xmcd CD database file
#
# Track frame offsets:
#	150
#	43797
#	84602
#	99295
#	148912
#	211707
#
# Disc length: 3932 seconds
#
# Revision: 1
# Processed by: cddbd v1.5.1PL0 Copyright (c) Steve Scherf et al.
# Submitted via: CDex 1.51
#
DISCID=4c0f5a06
DTITLE=ロヴロ・フォン・マタチッチ指揮, NHK 交響楽団 - ワーグナー：管弦楽曲集
DYEAR=2003
DGENRE=Classical
TTITLE0=ニュールンベルグのマイスタージンガー　前奏曲
TTITLE1=ローエングリン　第一幕　前奏曲
TTITLE2=ローエングリン　第三幕　前奏曲
TTITLE3=さまよえるオランダ人　序曲
TTITLE4=タンホイザー　序曲
TTITLE5=ジークフリート牧歌
EXTD=YEAR: 2003
EXTT0=
EXTT1=
EXTT2=
EXTT3=
EXTT4=
EXTT5=
PLAYORDER=
